<svg width="64" height="64" viewBox="0 0 64 64" fill="none" xmlns="http://www.w3.org/2000/svg">
<rect width="64" height="64" rx="5" fill="black"/>
<path d="M43.7102 11.0908C50.4146 11.0909 55.8583 17.2184 55.9431 24.8182V25.177C55.8583 40.1007 45.1905 52.1668 32.0438 52.1668V47.2209C41.8966 47.2209 50.9244 37.9632 50.9973 25.1487V24.8734L50.9917 24.6175C50.8229 19.442 47.3149 16.2444 44.0325 16.0464L43.7102 16.0367C42.8718 16.0367 41.5326 16.5753 39.8808 18.1984C38.3062 19.7457 37.09 21.6663 36.5364 22.8683L32.0438 32.6221L27.5513 22.8683C26.9972 21.6653 25.782 19.7445 24.2083 18.1978C22.5577 16.5755 21.2182 16.0367 20.3774 16.0367C16.9531 16.0368 13.1518 19.3755 13.0904 24.8734V25.1487L13.1001 25.747C13.4453 38.2504 22.345 47.2209 32.0438 47.2209V52.1668C18.8971 52.1668 8.22935 40.1007 8.14453 25.177V24.8182C8.22935 17.2184 13.673 11.0909 20.3774 11.0908C25.8482 11.0908 30.4786 17.4004 32.0438 20.799C33.6091 17.4004 38.2434 11.0908 43.7102 11.0908Z" fill="white"/>
</svg>
