<svg width="389" height="64" viewBox="0 0 389 64" fill="none" xmlns="http://www.w3.org/2000/svg">
<path d="M55.8511 0C66.3794 0.000184232 74.928 9.54734 75.0612 21.3885V21.9476C74.928 45.1999 58.1757 64 37.5306 64V56.2939C53.0031 56.2939 67.18 41.8695 67.2944 21.9035V21.4745L67.2857 21.0757C67.0206 13.0118 61.5118 8.02969 56.3571 7.72115L55.8511 7.7061C54.5345 7.7061 52.4315 8.54527 49.8375 11.0743C47.3648 13.4851 45.4549 16.4775 44.5855 18.3504L37.5306 33.5476L30.4757 18.3504C29.6056 16.4759 27.6972 13.4832 25.2259 11.0732C22.634 8.54559 20.5304 7.7061 19.2101 7.7061C13.8327 7.7062 7.86318 12.9083 7.76682 21.4745V21.9035L7.78199 22.8356C8.32409 42.317 22.2999 56.2939 37.5306 56.2939V64C16.8855 64 0.133194 45.1999 0 21.9476V21.3885C0.133194 9.54728 8.68176 9.339e-05 19.2101 0C27.8011 0 35.0726 9.83083 37.5306 15.1262C39.9887 9.83083 47.2661 0 55.8511 0Z" fill="url(#paint0_radial_12225_2663)"/>
<path d="M388.999 39.8181C388.999 41.0399 388.917 42.1396 388.753 43.117H363.816C364.021 45.5607 364.883 47.4749 366.402 48.8596C367.921 50.2444 369.788 50.9367 372.005 50.9367C375.207 50.9367 377.485 49.5724 378.84 46.8436H388.137C387.152 50.1018 385.264 52.7898 382.472 54.9077C379.681 56.9848 376.254 58.0233 372.19 58.0233C368.906 58.0233 365.95 57.3106 363.323 55.8851C360.737 54.4189 358.705 52.3622 357.227 49.7149C355.791 47.0676 355.072 44.013 355.072 40.5512C355.072 37.0486 355.791 33.9737 357.227 31.3264C358.664 28.6791 360.675 26.6428 363.262 25.2173C365.848 23.7918 368.824 23.0791 372.19 23.0791C375.433 23.0791 378.327 23.7715 380.872 25.1562C383.458 26.5409 385.449 28.5162 386.844 31.0821C388.281 33.6072 388.999 36.5192 388.999 39.8181ZM380.071 37.3745C380.03 35.1752 379.23 33.4239 377.67 32.1206C376.11 30.7766 374.201 30.1046 371.943 30.1046C369.809 30.1046 368.003 30.7562 366.525 32.0595C365.088 33.3221 364.206 35.0937 363.877 37.3745H380.071Z" fill="white"/>
<path d="M342.741 28.8832C343.85 27.0912 345.286 25.6861 347.052 24.6679C348.858 23.6497 350.91 23.1406 353.209 23.1406V32.121H350.931C348.221 32.121 346.169 32.7523 344.773 34.0149C343.419 35.2774 342.741 37.4767 342.741 40.6127V57.4739H334.121V23.6294H342.741V28.8832Z" fill="white"/>
<path d="M291.896 40.429C291.896 37.0079 292.574 33.9737 293.928 31.3264C295.324 28.6791 297.192 26.6428 299.532 25.2173C301.912 23.7918 304.56 23.0791 307.475 23.0791C310.02 23.0791 312.236 23.5882 314.125 24.6064C316.054 25.6246 317.593 26.9075 318.743 28.4551V23.6289H327.424V57.4735H318.743V52.5251C317.634 54.1135 316.095 55.4371 314.125 56.496C312.195 57.5142 309.958 58.0233 307.413 58.0233C304.54 58.0233 301.912 57.2902 299.532 55.824C297.192 54.3578 295.324 52.3011 293.928 49.6538C292.574 46.9658 291.896 43.8909 291.896 40.429ZM318.743 40.5512C318.743 38.4741 318.332 36.7025 317.511 35.2363C316.69 33.7293 315.582 32.589 314.186 31.8152C312.79 31.0006 311.292 30.5933 309.691 30.5933C308.09 30.5933 306.613 30.9802 305.258 31.7541C303.903 32.5279 302.795 33.6683 301.933 35.1752C301.112 36.6414 300.702 38.3926 300.702 40.429C300.702 42.4654 301.112 44.2574 301.933 45.8051C302.795 47.312 303.903 48.4727 305.258 49.2873C306.654 50.1018 308.131 50.5091 309.691 50.5091C311.292 50.5091 312.79 50.1222 314.186 49.3484C315.582 48.5338 316.69 47.3934 317.511 45.9272C318.332 44.4203 318.743 42.6283 318.743 40.5512Z" fill="white"/>
<path d="M256.58 40.5512C256.58 37.0486 257.298 33.9941 258.735 31.3875C260.172 28.7402 262.163 26.7038 264.708 25.2784C267.253 23.8122 270.167 23.0791 273.451 23.0791C277.679 23.0791 281.168 24.138 283.919 26.2558C286.71 28.333 288.578 31.2653 289.522 35.053H280.224C279.732 33.5868 278.89 32.4464 277.7 31.6319C276.55 30.7766 275.114 30.349 273.39 30.349C270.927 30.349 268.977 31.245 267.54 33.037C266.103 34.7883 265.385 37.293 265.385 40.5512C265.385 43.7687 266.103 46.2734 267.54 48.0654C268.977 49.8167 270.927 50.6924 273.39 50.6924C276.879 50.6924 279.157 49.1447 280.224 46.0494H289.522C288.578 49.7149 286.71 52.6269 283.919 54.7855C281.127 56.944 277.638 58.0233 273.451 58.0233C270.167 58.0233 267.253 57.3106 264.708 55.8851C262.163 54.4189 260.172 52.3825 258.735 49.776C257.298 47.1287 256.58 44.0538 256.58 40.5512Z" fill="white"/>
<path d="M251.999 23.6289V57.4735H243.379V23.6289H251.999Z" fill="white"/>
<path d="M222.947 23.1406C227.134 23.1406 230.5 24.4235 233.045 26.9894C235.631 29.5145 236.924 33.0578 236.924 37.6193V57.4739H228.303V38.78C228.303 36.1327 227.626 34.1167 226.272 32.732C224.917 31.3065 223.07 30.5938 220.73 30.5938C218.39 30.5938 216.522 31.3065 215.127 32.732C213.772 34.1167 213.095 36.1327 213.095 38.78V57.4739H204.475V38.78C204.475 36.1327 203.797 34.1167 202.443 32.732C201.088 31.3065 199.241 30.5938 196.901 30.5938C194.52 30.5938 192.632 31.3065 191.236 32.732C189.882 34.1167 189.204 36.1327 189.204 38.78V57.4739H180.584V23.6294H189.204V27.7225C190.313 26.297 191.729 25.177 193.453 24.3624C195.218 23.5479 197.147 23.1406 199.241 23.1406C201.909 23.1406 204.29 23.7108 206.383 24.8512C208.477 25.9508 210.098 27.5392 211.248 29.6163C212.356 27.6614 213.957 26.0934 216.05 24.9123C218.185 23.7312 220.484 23.1406 222.947 23.1406Z" fill="white"/>
<path d="M160.152 23.1406C164.339 23.1406 167.705 24.4235 170.25 26.9894C172.836 29.5145 174.129 33.0578 174.129 37.6193V57.4739H165.509V38.78C165.509 36.1327 164.831 34.1167 163.477 32.732C162.122 31.3065 160.275 30.5938 157.935 30.5938C155.595 30.5938 153.727 31.3065 152.332 32.732C150.977 34.1167 150.3 36.1327 150.3 38.78V57.4739H141.68V38.78C141.68 36.1327 141.002 34.1167 139.648 32.732C138.293 31.3065 136.446 30.5938 134.106 30.5938C131.725 30.5938 129.837 31.3065 128.441 32.732C127.087 34.1167 126.409 36.1327 126.409 38.78V57.4739H117.789V23.6294H126.409V27.7225C127.518 26.297 128.934 25.177 130.658 24.3624C132.423 23.5479 134.352 23.1406 136.446 23.1406C139.114 23.1406 141.495 23.7108 143.588 24.8512C145.682 25.9508 147.303 27.5392 148.453 29.6163C149.561 27.6614 151.162 26.0934 153.255 24.9123C155.39 23.7312 157.689 23.1406 160.152 23.1406Z" fill="white"/>
<path d="M110.995 23.6289V57.4735H102.375V23.6289H110.995Z" fill="white"/>
<path d="M247.73 5.97656C247.883 10.1912 251.291 13.5729 255.539 13.7241C251.291 13.8754 247.883 17.2571 247.73 21.4717C247.578 17.2571 244.17 13.8754 239.922 13.7241C244.17 13.5729 247.578 10.1912 247.73 5.97656Z" fill="white"/>
<path d="M106.768 6.05469C106.92 10.2693 110.328 13.651 114.576 13.8023C110.328 13.9535 106.92 17.3352 106.768 21.5498C106.615 17.3352 103.207 13.9535 98.9588 13.8023C103.207 13.651 106.615 10.2693 106.768 6.05469Z" fill="white"/>
<defs>
<radialGradient id="paint0_radial_12225_2663" cx="0" cy="0" r="1" gradientUnits="userSpaceOnUse" gradientTransform="translate(37.4674 0.14309) rotate(90) scale(73.5163 132.505)">
<stop offset="0.168269" stop-color="#33C2FF"/>
<stop offset="1" stop-color="#1F7AE5"/>
</radialGradient>
</defs>
</svg>
