<svg width="64" height="64" viewBox="0 0 64 64" fill="none" xmlns="http://www.w3.org/2000/svg">
<path d="M47.1246 4.99219C55.7844 4.99234 62.8159 12.907 62.9254 22.7234V23.1869C62.8159 42.4633 49.0366 58.0486 32.0555 58.0487V51.6603C44.782 51.6602 56.4429 39.7023 56.537 23.1503V22.7947L56.5299 22.4641C56.3117 15.7791 51.7806 11.6489 47.5408 11.3931L47.1246 11.3806C46.0416 11.3806 44.3118 12.0763 42.1782 14.1729C40.1444 16.1714 38.5734 18.6522 37.8584 20.2048L32.0555 32.8034L26.2526 20.2048C25.5369 18.6509 23.9672 16.1699 21.9345 14.172C19.8026 12.0765 18.0724 11.3806 16.9864 11.3806C12.5633 11.3807 7.65322 15.6933 7.57397 22.7947V23.1503L7.58644 23.923C8.03233 40.0733 19.5278 51.6603 32.0555 51.6603V58.0487C15.0743 58.0487 1.2951 42.4633 1.18555 23.1869V22.7234C1.2951 12.907 8.32653 4.99226 16.9864 4.99219C24.0527 4.99219 30.0337 13.142 32.0555 17.532C34.0773 13.142 40.0632 4.99219 47.1246 4.99219Z" fill="url(#paint0_radial_12225_2638)"/>
<defs>
<radialGradient id="paint0_radial_12225_2638" cx="0" cy="0" r="1" gradientUnits="userSpaceOnUse" gradientTransform="translate(32.0035 5.11081) rotate(90) scale(60.9456 108.989)">
<stop offset="0.168269" stop-color="#33C2FF"/>
<stop offset="1" stop-color="#1F7AE5"/>
</radialGradient>
</defs>
</svg>
