<svg width="356" height="64" viewBox="0 0 356 64" fill="none" xmlns="http://www.w3.org/2000/svg">
<path d="M356 41.6136C356 43.1161 355.899 44.4683 355.698 45.6702H325.089C325.341 48.6751 326.399 51.0289 328.263 52.7316C330.128 54.4344 332.42 55.2858 335.141 55.2858C339.071 55.2858 341.867 53.6081 343.53 50.2526H354.942C353.733 54.2591 351.415 57.5645 347.989 60.1687C344.563 62.7228 340.356 63.9999 335.368 63.9999C331.337 63.9999 327.709 63.1235 324.485 61.3706C321.31 59.5677 318.816 57.0386 317.003 53.7833C315.239 50.5281 314.357 46.772 314.357 42.5151C314.357 38.2081 315.239 34.427 317.003 31.1717C318.766 27.9164 321.235 25.4124 324.409 23.6595C327.583 21.9067 331.236 21.0303 335.368 21.0303C339.348 21.0303 342.9 21.8817 346.024 23.5844C349.198 25.2872 351.642 27.7161 353.355 30.8712C355.118 33.9763 356 37.5571 356 41.6136ZM345.041 38.6088C344.991 35.9044 344.008 33.7509 342.094 32.1483C340.179 30.4956 337.836 29.6693 335.065 29.6693C332.445 29.6693 330.228 30.4706 328.415 32.0732C326.651 33.6257 325.568 35.8042 325.165 38.6088H345.041Z" fill="black"/>
<path d="M299.223 28.1679C300.584 25.9643 302.347 24.2365 304.514 22.9845C306.73 21.7325 309.25 21.1064 312.071 21.1064V32.1493H309.275C305.95 32.1493 303.43 32.9256 301.717 34.4781C300.055 36.0306 299.223 38.735 299.223 42.5913V63.3249H288.643V21.7074H299.223V28.1679Z" fill="black"/>
<path d="M236.814 42.3648C236.814 38.158 237.646 34.427 239.308 31.1717C241.022 27.9164 243.314 25.4124 246.186 23.6595C249.108 21.9067 252.358 21.0303 255.935 21.0303C259.059 21.0303 261.78 21.6563 264.097 22.9083C266.465 24.1603 268.355 25.7379 269.766 27.641V21.7064H280.422V63.3238H269.766V57.2389C268.405 59.1921 266.516 60.8197 264.097 62.1219C261.729 63.3739 258.983 63.9999 255.86 63.9999C252.333 63.9999 249.108 63.0984 246.186 61.2955C243.314 59.4926 241.022 56.9635 239.308 53.7082C237.646 50.4029 236.814 46.6217 236.814 42.3648ZM269.766 42.5151C269.766 39.9609 269.262 37.7824 268.254 35.9795C267.246 34.1265 265.886 32.7242 264.173 31.7727C262.46 30.7711 260.621 30.2702 258.656 30.2702C256.691 30.2702 254.877 30.746 253.214 31.6976C251.552 32.6491 250.191 34.0514 249.133 35.9044C248.126 37.7073 247.622 39.8608 247.622 42.3648C247.622 44.8689 248.126 47.0725 249.133 48.9756C250.191 50.8286 251.552 52.2559 253.214 53.2575C254.928 54.2591 256.741 54.7599 258.656 54.7599C260.621 54.7599 262.46 54.2842 264.173 53.3326C265.886 52.331 267.246 50.9287 268.254 49.1258C269.262 47.2728 269.766 45.0692 269.766 42.5151Z" fill="black"/>
<path d="M193.469 42.5151C193.469 38.2081 194.35 34.452 196.114 31.2468C197.877 27.9916 200.321 25.4875 203.445 23.7347C206.569 21.9317 210.146 21.0303 214.177 21.0303C219.366 21.0303 223.649 22.3324 227.025 24.9366C230.451 27.4907 232.743 31.0966 233.902 35.7541H222.49C221.885 33.9512 220.852 32.5489 219.391 31.5473C217.981 30.4956 216.217 29.9698 214.101 29.9698C211.078 29.9698 208.685 31.0715 206.921 33.2751C205.158 35.4286 204.276 38.5086 204.276 42.5151C204.276 46.4715 205.158 49.5515 206.921 51.7551C208.685 53.9086 211.078 54.9853 214.101 54.9853C218.384 54.9853 221.18 53.0822 222.49 49.276H233.902C232.743 53.7833 230.451 57.3641 227.025 60.0184C223.598 62.6727 219.316 63.9999 214.177 63.9999C210.146 63.9999 206.569 63.1235 203.445 61.3706C200.321 59.5677 197.877 57.0637 196.114 53.8585C194.35 50.6032 193.469 46.8221 193.469 42.5151Z" fill="black"/>
<path d="M187.844 21.7061V63.3235H177.264V21.7061H187.844Z" fill="black"/>
<path d="M152.184 21.1064C157.323 21.1064 161.455 22.684 164.578 25.8391C167.753 28.9441 169.34 33.3012 169.34 38.9103V63.3249H158.759V40.3376C158.759 37.0823 157.928 34.6033 156.265 32.9006C154.602 31.1477 152.335 30.2713 149.463 30.2713C146.591 30.2713 144.299 31.1477 142.586 32.9006C140.923 34.6033 140.092 37.0823 140.092 40.3376V63.3249H129.511V40.3376C129.511 37.0823 128.68 34.6033 127.017 32.9006C125.354 31.1477 123.087 30.2713 120.215 30.2713C117.293 30.2713 114.975 31.1477 113.262 32.9006C111.6 34.6033 110.768 37.0823 110.768 40.3376V63.3249H100.188V21.7074H110.768V26.7406C112.129 24.9877 113.867 23.6105 115.983 22.6089C118.149 21.6073 120.517 21.1064 123.087 21.1064C126.362 21.1064 129.284 21.8076 131.854 23.2099C134.423 24.562 136.414 26.5152 137.824 29.0693C139.185 26.6655 141.15 24.7373 143.719 23.285C146.339 21.8326 149.161 21.1064 152.184 21.1064Z" fill="black"/>
<path d="M75.1096 21.1064C80.2488 21.1064 84.3803 22.684 87.5041 25.8391C90.6783 28.9441 92.2654 33.3012 92.2654 38.9103V63.3249H81.6848V40.3376C81.6848 37.0823 80.8534 34.6033 79.1908 32.9006C77.5281 31.1477 75.2608 30.2713 72.3889 30.2713C69.517 30.2713 67.2245 31.1477 65.5115 32.9006C63.8488 34.6033 63.0175 37.0823 63.0175 40.3376V63.3249H52.4368V40.3376C52.4368 37.0823 51.6055 34.6033 49.9428 32.9006C48.2801 31.1477 46.0128 30.2713 43.1409 30.2713C40.2187 30.2713 37.901 31.1477 36.1879 32.9006C34.5253 34.6033 33.6939 37.0823 33.6939 40.3376V63.3249H23.1133V21.7074H33.6939V26.7406C35.0543 24.9877 36.7926 23.6105 38.9087 22.6089C41.0752 21.6073 43.4433 21.1064 46.0128 21.1064C49.2878 21.1064 52.2101 21.8076 54.7797 23.2099C57.3493 24.562 59.3394 26.5152 60.7502 29.0693C62.1106 26.6655 64.0755 24.7373 66.6451 23.285C69.2651 21.8326 72.0866 21.1064 75.1096 21.1064Z" fill="black"/>
<path d="M14.774 21.7061V63.3235H4.19336V21.7061H14.774Z" fill="black"/>
<path d="M182.605 0C182.793 5.18257 186.976 9.34091 192.19 9.52692C186.976 9.71293 182.793 13.8713 182.605 19.0538C182.418 13.8713 178.235 9.71293 173.021 9.52692C178.235 9.34091 182.418 5.18257 182.605 0Z" fill="black"/>
<path d="M9.58398 0.0957031C9.77112 5.27827 13.9546 9.43661 19.1685 9.62262C13.9546 9.80863 9.77112 13.967 9.58398 19.1495C9.39685 13.967 5.21335 9.80863 -0.000568227 9.62262C5.21335 9.43661 9.39685 5.27827 9.58398 0.0957031Z" fill="black"/>
</svg>
